<?xml version="1.0" standalone="no"?>
<!DOCTYPE svg PUBLIC "-//W3C//DTD SVG 20010904//EN"
 "http://www.w3.org/TR/2001/REC-SVG-20010904/DTD/svg10.dtd">
<svg version="1.0" xmlns="http://www.w3.org/2000/svg"
 width="300.000000pt" height="300.000000pt" viewBox="0 0 300.000000 300.000000"
 preserveAspectRatio="xMidYMid meet">
<metadata>
Created by potrace 1.11, written by Peter Selinger 2001-2013
</metadata>
<g transform="translate(0.000000,300.000000) scale(0.100000,-0.100000)"
fill="#000000" stroke="none">
<path d="M1370 2983 c-261 -21 -558 -136 -775 -302 -77 -58 -218 -199 -277
-277 -219 -287 -333 -675 -300 -1026 15 -150 34 -245 74 -363 155 -457 530
-816 993 -950 266 -77 566 -77 836 0 464 132 844 498 998 960 80 243 97 530
46 775 -156 741 -832 1243 -1595 1183z m490 -954 l0 -311 41 37 c56 50 129 82
221 97 243 37 452 -112 524 -373 25 -89 25 -308 1 -399 -50 -188 -177 -333
-341 -390 -164 -56 -343 -23 -449 83 l-45 44 -6 -30 c-3 -16 -6 -45 -6 -63 l0
-34 -161 0 -162 0 6 83 c4 45 7 416 7 825 l0 742 185 0 185 0 0 -311z m-836
-184 c141 -25 247 -95 303 -202 54 -101 55 -112 63 -528 4 -214 9 -397 11
-405 3 -13 -20 -15 -163 -18 l-167 -2 -7 49 -6 50 -53 -40 c-163 -123 -408
-114 -543 21 -146 147 -131 411 32 545 92 75 221 118 409 137 l118 11 -6 26
c-16 66 -60 95 -158 107 -69 8 -198 -17 -284 -56 -45 -20 -65 -26 -68 -17 -9
25 -65 225 -65 230 0 12 152 67 225 81 146 28 245 32 359 11z"/>
<path d="M2005 1558 c-52 -18 -96 -59 -121 -112 -21 -46 -24 -65 -24 -187 0
-126 2 -139 26 -188 34 -67 86 -103 158 -109 101 -8 175 37 217 130 20 46 24
69 24 168 0 100 -3 122 -24 167 -50 111 -157 166 -256 131z"/>
<path d="M890 1206 c-113 -25 -160 -72 -160 -158 0 -38 6 -54 28 -78 48 -54
145 -53 209 3 48 43 63 82 63 172 l0 75 -42 -1 c-24 0 -68 -6 -98 -13z"/>
</g>
</svg>
